<?xml version="1.0" encoding="UTF-8"?>
<svg width="549px" height="180px" viewBox="0 0 549 180" version="1.1" xmlns="http://www.w3.org/2000/svg" xmlns:xlink="http://www.w3.org/1999/xlink">
    <!-- Generator: Sketch 50.2 (55047) - http://www.bohemiancoding.com/sketch -->
    <title>logo</title>
    <desc>Created with Sketch.</desc>
    <defs></defs>
    <g id="Symbols" stroke="none" stroke-width="1" fill="none" fill-rule="evenodd">
        <g id="top-header-1280" transform="translate(-323.000000, 0.000000)" fill="#FFFFFF">
            <g id="top-header">
                <path d="M677.59818,47.4299305 L681.908504,47.4299305 L684.252358,69.9280576 L666.841771,69.9280576 L664.984441,47.4299305 L670.679153,47.4299305 L671.203998,42.3299664 L660.253076,42.3299664 L659.003538,27.1942446 L675.490069,27.1942446 L677.59818,47.4299305 Z M712.751993,57.890331 C716.703108,57.9329372 720.64607,56.9823772 722.683978,55.519073 L725.038915,70.8396913 C721.961669,71.9244365 718.518952,72.5179856 714.822036,72.5179856 C697.528834,72.5135781 685.398748,63.5270883 683.867319,49.2113897 C683.851012,49.0527182 683.844297,48.8989439 683.830868,48.7417416 L685.725849,48.7417416 L686.244799,43.5996084 L679.720519,43.5996084 C681.36274,32.9632285 691.441488,27.1942449 704.1711,27.1942449 C707.820054,27.1937552 711.621527,27.7726125 714.257043,28.4033808 L716.392794,42.3356232 C713.83114,41.2787924 709.920793,40.6514521 706.935154,40.6514521 C703.482365,40.6514521 700.457397,41.7112213 698.617093,43.5996084 L702.83152,43.5996084 L702.31257,48.7417416 L701.019513,48.7417416 C701.030544,48.8984542 701.031024,49.051249 701.052127,49.2113897 C701.717361,54.4431429 706.617165,57.8340124 712.751993,57.890331 Z M646.399449,59.6394264 L660.710609,59.6394264 L661.59316,71.2230216 L631.260599,71.2230216 L630.374232,48.2571298 L631.0402,43.051131 L625.934285,43.051131 L625.338443,28.4892086 L640.298398,28.4892086 L641.182857,43.051131 L648.248513,43.051131 L647.73234,48.2571298 L645.737774,48.2571298 L646.399449,59.6394264 Z M613.666228,58.5803947 L628.157085,58.5803947 L628.575472,69.9280576 L597.864652,69.9280576 L597.900403,47.4299305 L604.687346,47.4299305 L605.210088,42.3299664 L593.615566,42.3299664 L593.639239,27.1942446 L608.792944,27.1942446 L609.167366,47.4299305 L613.460417,47.4299305 L613.666228,58.5803947 Z M499.819334,37.7040562 L499.25079,42.3299664 L517.869104,42.3299664 L517.336955,47.4299305 L509.806709,47.4299305 L509.203739,53.2103754 L493.526997,53.2103754 L492.870418,58.4725669 L508.649458,58.4725669 L507.445484,69.9280576 L475.14033,69.9280576 L478.400109,47.4299305 L493.333712,47.4299305 L493.86586,42.3299664 L483.509128,42.3299664 L485.702151,27.1942446 L516.296757,27.1942446 L515.200984,37.7040562 L499.819334,37.7040562 Z M579.745766,27.1942446 L583.841104,42.4009883 L587.788915,42.4009883 L587.27113,47.4878279 L580.954729,47.4878279 L586.998108,69.9280576 L570.964976,69.9280576 L569.703803,63.7225977 L560.274944,63.7225977 L558.136746,69.9280576 L542.470519,69.9280576 L551.89363,47.4878279 L565.835504,47.4878279 L563.898481,53.2127026 L567.902333,53.2127026 L566.710135,47.4878279 L572.246266,47.4878279 L572.764051,42.4009883 L558.28619,42.4009883 L564.279276,28.1292542 L564.660549,27.1942446 L579.745766,27.1942446 Z M543.726709,37.7040562 L543.060502,47.4299305 L538.675875,47.4299305 L537.135211,69.9280576 L520.787485,69.9280576 L522.785119,47.4299305 L535.944428,47.4299305 L536.477887,42.3299664 L527.622766,42.3299664 L528.033347,37.7040562 L519.163915,37.7040562 L520.207145,27.1942446 L558.65566,27.1942446 L553.965565,37.7040562 L543.726709,37.7040562 Z M736.683624,46.618705 L736.26393,46.618705 L732.807783,36.2589928 L740.576651,46.618705 L736.683624,46.618705 Z M859.561891,164.480484 L872,180 L852.155738,164.476136 L846.306751,164.476136 L802.501827,130.208161 L788.115818,130.208161 L782.334597,125.682903 L790.75387,125.682903 L768.987179,108.645789 L793.50198,119.239026 L778.789159,98.9362473 L782.840195,98.9362473 L763.923985,72.7287954 L745.691198,61.5519032 L755.638801,92.3392091 L731.840104,71.6064196 L728.015914,48.0940225 L723.745241,48.0940225 L719.053555,19.2490115 L705.616745,0 C713.386718,5.63700345 722.213546,11.6155996 732.077043,17.9270915 C740.412691,23.2616381 749.487032,28.8338984 759.315444,34.6477376 L738.727202,28.6836362 L750.21467,43.0208644 L744.582437,43.0208644 L748.08414,48.0940225 L758.550318,48.0940225 L797.079619,96.2725977 L800.891313,96.2725977 L803.025688,98.9362473 L795.162958,98.9362473 L815.269151,124.029537 L804.530469,124.029537 L805.806,125.682903 L809.987281,125.682903 L813.611057,130.208161 L826.236603,130.208161 L853.708098,164.480484 L859.561891,164.480484 Z M478.518707,48.0940225 L474.214888,48.0940225 L470.690851,71.4522922 L443.609626,90.925489 L456.85334,52.0356248 L446.659013,61.0581158 L443.424125,51.7650564 L412.411051,94.2211092 L403.780164,94.2211092 L401.552214,96.9524009 L407.071719,96.9524009 L391.773932,117.771193 L417.112512,106.908353 L323,180 L390.735029,96.9524009 L386.037927,96.9524009 L388.265878,94.2211092 L396.746621,94.2211092 L434.32779,48.0940225 L438.631125,48.0940225 L451.805094,31.9420533 L432.498933,38.3492104 C441.849061,32.0164596 451.45395,25.1962024 461.291805,17.9270915 C469.000515,12.2316259 476.848229,6.26655822 484.851415,0 L457.420499,38.081541 L458.815874,42.4661991 L482.600216,21.0420106 L478.518707,48.0940225 Z" id="logo"></path>
            </g>
        </g>
    </g>
</svg>